<mxfile host="app.diagrams.net" modified="2021-04-01T14:06:00.483Z" agent="5.0 (Macintosh; Intel Mac OS X 10_15_7) AppleWebKit/537.36 (KHTML, like Gecko) Chrome/89.0.4389.90 Safari/537.36" etag="Gqqvsq0oifD79Q6AZyfL" version="14.4.9" type="github">
  <diagram id="Pe28DnI3vjl9g1rljiI1" name="Page-1">
    <mxGraphModel dx="670" dy="391" grid="1" gridSize="10" guides="1" tooltips="1" connect="1" arrows="1" fold="1" page="1" pageScale="1" pageWidth="850" pageHeight="1100" math="0" shadow="0">
      <root>
        <mxCell id="0" />
        <mxCell id="1" parent="0" />
        <mxCell id="GxSYJKZSYVQrgIxvNFur-1" value="" style="outlineConnect=0;fontColor=#232F3E;gradientColor=none;fillColor=#3334B9;strokeColor=none;dashed=0;verticalLabelPosition=bottom;verticalAlign=top;align=center;html=1;fontSize=12;fontStyle=0;aspect=fixed;pointerEvents=1;shape=mxgraph.aws4.rds_postgresql_instance;" parent="1" vertex="1">
          <mxGeometry x="520" y="150" width="84" height="84" as="geometry" />
        </mxCell>
        <mxCell id="GxSYJKZSYVQrgIxvNFur-2" style="edgeStyle=orthogonalEdgeStyle;rounded=0;orthogonalLoop=1;jettySize=auto;html=1;" parent="1" source="GxSYJKZSYVQrgIxvNFur-3" target="GxSYJKZSYVQrgIxvNFur-13" edge="1">
          <mxGeometry relative="1" as="geometry" />
        </mxCell>
        <mxCell id="GxSYJKZSYVQrgIxvNFur-3" value="" style="shape=image;html=1;verticalAlign=top;verticalLabelPosition=bottom;labelBackgroundColor=#ffffff;imageAspect=0;aspect=fixed;image=https://cdn3.iconfinder.com/data/icons/logos-and-brands-adobe/512/267_Python-128.png" parent="1" vertex="1">
          <mxGeometry x="530" y="190" width="38" height="38" as="geometry" />
        </mxCell>
        <mxCell id="GxSYJKZSYVQrgIxvNFur-4" style="edgeStyle=orthogonalEdgeStyle;rounded=0;orthogonalLoop=1;jettySize=auto;html=1;" parent="1" source="GxSYJKZSYVQrgIxvNFur-5" target="GxSYJKZSYVQrgIxvNFur-13" edge="1">
          <mxGeometry relative="1" as="geometry" />
        </mxCell>
        <mxCell id="GxSYJKZSYVQrgIxvNFur-5" value="" style="outlineConnect=0;fontColor=#232F3E;gradientColor=none;fillColor=#3334B9;strokeColor=none;dashed=0;verticalLabelPosition=bottom;verticalAlign=top;align=center;html=1;fontSize=12;fontStyle=0;aspect=fixed;pointerEvents=1;shape=mxgraph.aws4.rds_postgresql_instance;" parent="1" vertex="1">
          <mxGeometry x="520" y="255" width="84" height="84" as="geometry" />
        </mxCell>
        <mxCell id="GxSYJKZSYVQrgIxvNFur-6" value="" style="shape=image;html=1;verticalAlign=top;verticalLabelPosition=bottom;labelBackgroundColor=#ffffff;imageAspect=0;aspect=fixed;image=https://cdn3.iconfinder.com/data/icons/logos-and-brands-adobe/512/267_Python-128.png" parent="1" vertex="1">
          <mxGeometry x="530" y="295" width="38" height="38" as="geometry" />
        </mxCell>
        <mxCell id="GxSYJKZSYVQrgIxvNFur-7" value="" style="outlineConnect=0;fontColor=#232F3E;gradientColor=none;fillColor=#3334B9;strokeColor=none;dashed=0;verticalLabelPosition=bottom;verticalAlign=top;align=center;html=1;fontSize=12;fontStyle=0;aspect=fixed;pointerEvents=1;shape=mxgraph.aws4.rds_postgresql_instance;" parent="1" vertex="1">
          <mxGeometry x="520" y="360" width="84" height="84" as="geometry" />
        </mxCell>
        <mxCell id="GxSYJKZSYVQrgIxvNFur-8" style="edgeStyle=orthogonalEdgeStyle;rounded=0;orthogonalLoop=1;jettySize=auto;html=1;" parent="1" source="GxSYJKZSYVQrgIxvNFur-9" target="GxSYJKZSYVQrgIxvNFur-13" edge="1">
          <mxGeometry relative="1" as="geometry" />
        </mxCell>
        <mxCell id="GxSYJKZSYVQrgIxvNFur-9" value="" style="shape=image;html=1;verticalAlign=top;verticalLabelPosition=bottom;labelBackgroundColor=#ffffff;imageAspect=0;aspect=fixed;image=https://cdn3.iconfinder.com/data/icons/logos-and-brands-adobe/512/267_Python-128.png" parent="1" vertex="1">
          <mxGeometry x="530" y="400" width="38" height="38" as="geometry" />
        </mxCell>
        <mxCell id="GxSYJKZSYVQrgIxvNFur-10" value="" style="endArrow=none;dashed=1;html=1;dashPattern=1 3;strokeWidth=2;" parent="1" edge="1">
          <mxGeometry width="50" height="50" relative="1" as="geometry">
            <mxPoint x="400" y="480" as="sourcePoint" />
            <mxPoint x="400" y="120" as="targetPoint" />
          </mxGeometry>
        </mxCell>
        <mxCell id="GxSYJKZSYVQrgIxvNFur-11" value="" style="outlineConnect=0;dashed=0;verticalLabelPosition=bottom;verticalAlign=top;align=center;html=1;shape=mxgraph.aws3.postgre_sql_instance;fillColor=#2E73B8;gradientColor=none;" parent="1" vertex="1">
          <mxGeometry x="220" y="265.5" width="60" height="63" as="geometry" />
        </mxCell>
        <mxCell id="GxSYJKZSYVQrgIxvNFur-12" style="edgeStyle=orthogonalEdgeStyle;rounded=0;orthogonalLoop=1;jettySize=auto;html=1;entryX=1;entryY=0.5;entryDx=0;entryDy=0;entryPerimeter=0;" parent="1" source="GxSYJKZSYVQrgIxvNFur-13" target="GxSYJKZSYVQrgIxvNFur-11" edge="1">
          <mxGeometry relative="1" as="geometry" />
        </mxCell>
        <mxCell id="GxSYJKZSYVQrgIxvNFur-13" value="" style="pointerEvents=1;shadow=0;dashed=0;html=1;strokeColor=none;fillColor=#DF8C42;labelPosition=center;verticalLabelPosition=bottom;verticalAlign=top;align=center;outlineConnect=0;shape=mxgraph.veeam2.restful_api;" parent="1" vertex="1">
          <mxGeometry x="340" y="270" width="54" height="54" as="geometry" />
        </mxCell>
      </root>
    </mxGraphModel>
  </diagram>
</mxfile>
